# xmcd
# Copyright (C) 1995-1998 Ti Kan
#
# Track frame offsets:
#       150
#       20337
#       33276
#       60404
#       76883
#       93578
#       115697
#       182903
#       223403
#
# Disc length: 3155 seconds
#
# Revision: 0
# Processed by: cddbd v1.5.1PL0 Copyright (c) Steve Scherf et al.
# Submitted via: CD-Transfer v1.0
#
DISCID=710c5109
DTITLE=Christian Maeder - 
DYEAR=02
DGENRE=
TTITLE0=F Impro
TTITLE1=Blues Fantasy
TTITLE2=G-Am Impro
TTITLE3=Eb-F Impro
TTITLE4=Slow Blues
TTITLE5=Hm-G Impro
TTITLE6=Round About
TTITLE7=D-Eb Impro
TTITLE8=Am Impro
EXTD=
EXTT0=
EXTT1=
EXTT2=
EXTT3=
EXTT4=
EXTT5=
EXTT6=
EXTT7=
EXTT8=
PLAYORDER=
